<?xml version="1.0" encoding="utf-8"?>
<!-- Generator: Adobe Illustrator 16.0.3, SVG Export Plug-In . SVG Version: 6.00 Build 0)  -->
<!DOCTYPE svg PUBLIC "-//W3C//DTD SVG 1.1//EN" "http://www.w3.org/Graphics/SVG/1.1/DTD/svg11.dtd">
<svg version="1.1" id="Layer_1" xmlns="http://www.w3.org/2000/svg" xmlns:xlink="http://www.w3.org/1999/xlink" x="0px" y="0px"
	 width="59.155px" height="64.32px" viewBox="0 0 59.155 64.32" enable-background="new 0 0 59.155 64.32" xml:space="preserve">
<path fill="none" stroke="#482B87" stroke-width="2.312" stroke-linecap="round" stroke-linejoin="round" stroke-miterlimit="10" d="
	M11.529,60.839H7.854c-1.688,0-3.057-1.369-3.057-3.057V8.541c0-1.688,1.368-3.057,3.057-3.057h44.025
	c1.688,0,3.057,1.369,3.057,3.057v49.242c0,1.688-1.368,3.057-3.057,3.057h-33.85"/>
<rect x="9.724" y="10.278" fill="none" stroke="#482B87" stroke-width="2.312" stroke-linecap="round" stroke-linejoin="round" stroke-miterlimit="10" width="40.285" height="11.805"/>
<rect x="9.724" y="27.259" fill="none" stroke="#482B87" stroke-width="2.312" stroke-linecap="round" stroke-linejoin="round" stroke-miterlimit="10" width="11.028" height="7.44"/>
<rect x="24.352" y="27.259" fill="none" stroke="#482B87" stroke-width="2.312" stroke-linecap="round" stroke-linejoin="round" stroke-miterlimit="10" width="11.028" height="7.44"/>
<rect x="38.979" y="27.259" fill="none" stroke="#482B87" stroke-width="2.312" stroke-linecap="round" stroke-linejoin="round" stroke-miterlimit="10" width="11.028" height="7.44"/>
<rect x="9.724" y="38.298" fill="none" stroke="#482B87" stroke-width="2.312" stroke-linecap="round" stroke-linejoin="round" stroke-miterlimit="10" width="11.028" height="7.44"/>
<rect x="24.352" y="38.298" fill="none" stroke="#482B87" stroke-width="2.312" stroke-linecap="round" stroke-linejoin="round" stroke-miterlimit="10" width="11.028" height="7.44"/>
<rect x="38.979" y="38.298" fill="none" stroke="#482B87" stroke-width="2.312" stroke-linecap="round" stroke-linejoin="round" stroke-miterlimit="10" width="11.028" height="7.44"/>
<rect x="9.724" y="49.339" fill="none" stroke="#482B87" stroke-width="2.312" stroke-linecap="round" stroke-linejoin="round" stroke-miterlimit="10" width="11.028" height="7.439"/>
<rect x="24.352" y="49.339" fill="none" stroke="#482B87" stroke-width="2.312" stroke-linecap="round" stroke-linejoin="round" stroke-miterlimit="10" width="11.028" height="7.439"/>
<rect x="38.979" y="49.339" fill="none" stroke="#482B87" stroke-width="2.312" stroke-linecap="round" stroke-linejoin="round" stroke-miterlimit="10" width="11.028" height="7.439"/>
</svg>
