<?xml version="1.0" encoding="utf-8"?>
<!-- Generator: Adobe Illustrator 16.0.3, SVG Export Plug-In . SVG Version: 6.00 Build 0)  -->
<!DOCTYPE svg PUBLIC "-//W3C//DTD SVG 1.1//EN" "http://www.w3.org/Graphics/SVG/1.1/DTD/svg11.dtd">
<svg version="1.1" id="Layer_1" xmlns="http://www.w3.org/2000/svg" xmlns:xlink="http://www.w3.org/1999/xlink" x="0px" y="0px"
	 width="55.868px" height="70.893px" viewBox="0 0 55.868 70.893" enable-background="new 0 0 55.868 70.893" xml:space="preserve">
<path fill="none" stroke="#482B87" stroke-width="2.312" stroke-linecap="round" stroke-linejoin="round" stroke-miterlimit="10" d="
	M38.649,14.165c1.211-2.738,3.018-4.136,3.441-6.147c0.652-3.095-2.889-4.71-4.615-2.121C35.75,8.486,28.782,8.49,27.262,6.664
	c-0.003-0.003-0.007-0.005-0.01-0.009c-0.45-0.705-1.236-1.175-2.134-1.175c-1.402,0-2.538,1.136-2.538,2.538
	c0,1.473-2.06,4.131-4.758,0.931c-0.179-0.375-0.762-0.722-1.449-0.879c-0.002,0-0.005-0.001-0.007-0.001
	c-1.327-0.301-3.046,0.118-3.046,2.486c0,3.375,4.461,3.794,5.018,8.695l22.174-1.967"/>
<path fill="none" stroke="#482B87" stroke-width="2.312" stroke-linecap="round" stroke-linejoin="round" stroke-miterlimit="10" d="
	M41.043,21.65l-23.752,2.056c-1.765,3.146-5.306,6.893-8.064,11.552c-2.409,3.626-3.815,7.975-3.815,12.653
	c0,12.646,10.252,19.829,22.897,19.829c12.371,0,22.443-6.742,22.877-19.008c0.012-0.265,0.021-0.537,0.021-0.821
	c0-0.398-0.011-0.793-0.031-1.187c-0.472-11.811-7.915-16.896-11.61-21.706"/>
<path fill="none" stroke="#482B87" stroke-width="2.312" stroke-linecap="round" stroke-linejoin="round" stroke-miterlimit="10" d="
	M11.503,55.878c4.19,5.044,10.17,7.735,16.807,7.735"/>
<path fill="none" stroke="#482B87" stroke-width="2.312" stroke-linecap="round" stroke-linejoin="round" stroke-miterlimit="10" d="
	M22.996,52.741c3.798,2.183,9.231,1.494,10.349-1.853c1.502-4.498-3.507-5.979-5.364-6.646c-1.271-0.456-5.113-2.925-3.473-6.209
	c1.34-2.682,5.314-3.094,9.112-0.911"/>
<line fill="none" stroke="#482B87" stroke-width="2.312" stroke-linecap="round" stroke-linejoin="round" stroke-miterlimit="10" x1="28.818" y1="35.72" x2="28.818" y2="32.669"/>
<line fill="none" stroke="#482B87" stroke-width="2.312" stroke-linecap="round" stroke-linejoin="round" stroke-miterlimit="10" x1="28.818" y1="57.264" x2="28.818" y2="54.213"/>
</svg>
