<?xml version="1.0" encoding="utf-8"?>
<!-- Generator: Adobe Illustrator 16.0.3, SVG Export Plug-In . SVG Version: 6.00 Build 0)  -->
<!DOCTYPE svg PUBLIC "-//W3C//DTD SVG 1.1//EN" "http://www.w3.org/Graphics/SVG/1.1/DTD/svg11.dtd">
<svg version="1.1" id="Layer_1" xmlns="http://www.w3.org/2000/svg" xmlns:xlink="http://www.w3.org/1999/xlink" x="0px" y="0px"
	 width="57.5px" height="58.5px" viewBox="0 0 57.5 58.5" enable-background="new 0 0 57.5 58.5" xml:space="preserve">
<path fill="none" stroke="#482B87" stroke-width="2.312" stroke-linecap="round" stroke-linejoin="round" stroke-miterlimit="10" d="
	M26.73,54.635H10.059c-3.498,0-6.334-2.836-6.334-6.333V30.968c0-3.497,2.836-6.333,6.334-6.333h24.5
	c3.498,0,6.333,2.836,6.333,6.333v17.334c0,3.497-2.835,6.333-6.333,6.333h-1.563"/>
<path fill="none" stroke="#482B87" stroke-width="2.312" stroke-linecap="round" stroke-linejoin="round" stroke-miterlimit="10" d="
	M51.131,49.232l-10.239-3.997v-11.2l10.239-3.997c1.728-0.674,3.594,0.6,3.594,2.456v14.283
	C54.725,48.632,52.858,49.907,51.131,49.232z"/>
<line fill="none" stroke="#482B87" stroke-width="2.312" stroke-linecap="round" stroke-linejoin="round" stroke-miterlimit="10" x1="10.225" y1="31.293" x2="10.225" y2="48.583"/>
<circle fill="none" stroke="#482B87" stroke-width="2.312" stroke-linecap="round" stroke-linejoin="round" stroke-miterlimit="10" cx="33.343" cy="12.264" r="8.625"/>
<circle fill="none" stroke="#482B87" stroke-width="2.312" stroke-linecap="round" stroke-linejoin="round" stroke-miterlimit="10" cx="11.273" cy="12.264" r="8.625"/>
</svg>
